Coordinates
version=1
nRows=13
nColumns=34
inDegrees=yes

Units are S.I. units (second, meters, Newtons, ...)
If the header above contains a line with 'inDegrees', this indicates whether rotational values are in degrees (yes) or radians (no).

endheader
time	pelvis_tilt	pelvis_list	pelvis_rotation	pelvis_tx	pelvis_ty	pelvis_tz	hip_flexion_r	hip_adduction_r	hip_rotation_r	knee_angle_r	ankle_angle_r	subtalar_angle_r	mtp_angle_r	hip_flexion_l	hip_adduction_l	hip_rotation_l	knee_angle_l	ankle_angle_l	subtalar_angle_l	mtp_angle_l	lumbar_extension	lumbar_bending	lumbar_rotation	arm_flex_r	arm_add_r	arm_rot_r	elbow_flex_r	pro_sup_r	arm_flex_l	arm_add_l	arm_rot_l	elbow_flex_l	pro_sup_l
      3.60000000	     -4.39035254	      0.23160846	      0.11072387	      1.83868025	      0.90020673	     -0.03625633	     14.43570664	     -9.44364596	    -13.19427587	     33.11049564	      6.82248155	     -2.96154431	      0.00000000	     13.56822666	     -6.72608295	     -0.41800658	     27.23288531	      4.06496281	     -0.57844012	      0.00000000	     -5.00659754	      0.00213566	     -0.87527488	     65.78630978	      6.12177774	     14.47537422	    116.34093400	     97.35947342	     80.40312007	      5.40902541	     20.97570385	     92.06227756	     84.76654630
      3.61666670	     -4.64089837	      0.15001335	     -0.04798298	      1.83895165	      0.90031401	     -0.03569129	     14.67047791	     -9.22486796	    -12.92269396	     32.89614083	      6.26228562	     -3.43418719	      0.00000000	     13.27833751	     -6.71078002	     -0.31055296	     26.36752587	      3.81680021	     -0.80603464	      0.00000000	     -5.10423704	     -0.12953516	     -1.06734808	     64.56132963	      6.60826744	     14.46122670	    116.40625732	     96.94355431	     78.83831139	      5.87137039	     20.15832224	     91.96720497	     84.32797304
      3.63333330	     -4.96010590	      0.07008269	     -0.19881276	      1.83900215	      0.90038711	     -0.03468016	     14.95603979	     -8.97170035	    -12.65519842	     32.68124906	      5.80764677	     -3.91368579	      0.00000000	     13.13718465	     -6.73623217	     -0.19353698	     25.62447536	      3.58651225	     -1.02892294	      0.00000000	     -5.19559587	     -0.24903901	     -1.10925813	     62.94092743	      6.92846118	     14.62527203	    116.53509037	     96.48187954	     76.77231378	      6.25820403	     19.48224065	     92.00747554	     83.77879469
      3.65000000	     -5.08648380	      0.00457565	     -0.29975443	      1.83855497	      0.90044593	     -0.03392892	     14.98441345	     -8.73780282	    -12.50623278	     32.45340006	      5.61057604	     -4.11289619	      0.00000000	     12.93070396	     -6.77088225	     -0.04542508	     25.03459789	      3.36897635	     -1.07671034	      0.00000000	     -5.61217804	     -0.35537398	     -1.07648406	     61.04282722	      6.95431683	     15.00296265	    116.62492505	     96.32001172	     74.56842950	      6.34306409	     19.41298939	     91.89431980	     83.54487505
      3.66666670	     -5.58843427	     -0.01230106	     -0.46824241	      1.83717634	      0.90024096	     -0.03390515	     15.45432212	     -8.56765806	    -12.31798973	     32.15962738	      5.20393968	     -4.51580694	      0.00000000	     13.43795109	     -6.74889168	      0.02799792	     24.88039642	      2.76775256	     -1.33072859	      0.00000000	     -5.70884658	     -0.40609655	     -0.75317189	     58.82770839	      6.79639692	     15.56868121	    116.70573423	     96.00506930	     71.61088297	      6.70237564	     18.77552451	     91.87281540	     83.01084862
      3.68333330	     -5.87184709	     -0.05133594	     -0.59078990	      1.83485952	      0.90045338	     -0.03431027	     15.76715514	     -8.45701067	    -12.27254823	     31.97130029	      5.08429648	     -4.66519102	      0.00000000	     13.77018681	     -6.74262548	      0.12762125	     24.65753480	      2.44119582	     -1.49081958	      0.00000000	     -6.28650670	     -0.44497824	     -0.50353358	     56.53499669	      6.55294020	     16.38478259	    116.57580466	     95.84289380	     68.87930323	      6.76067097	     18.63911167	     91.59137348	     82.65553508
      3.70000000	     -6.61499744	     -0.03058739	     -0.80007192	      1.83189745	      0.90096654	     -0.03502732	     16.76755674	     -8.51424052	    -12.38214985	     31.87341204	      4.79694243	     -4.73739162	      0.00000000	     14.80859769	     -6.68692158	      0.16042256	     24.71075279	      1.88207153	     -1.94493828	      0.00000000	     -6.47026444	     -0.38076039	     -0.09763166	     54.13968670	      6.25555219	     17.61027407	    116.02647732	     95.50130803	     65.78340736	      6.94187460	     17.84973857	     91.20854659	     81.81073392
      3.71666670	     -6.96154289	      0.00372662	     -0.96028348	      1.82914368	      0.90288120	     -0.03580596	     17.28957447	     -8.59265799	    -12.52699933	     31.55405876	      4.29568270	     -4.39447453	      0.00000000	     15.22255540	     -6.59406895	      0.28981162	     24.35151659	      1.26926401	     -2.11027705	      0.00000000	     -7.31307996	     -0.26857733	      0.27857829	     51.57356652	      6.04895492	     18.41545983	    115.13259516	     95.23951136	     62.85663452	      6.74166762	     17.57788290	     90.66911828	     81.13732836
      3.73333330	     -7.37825372	      0.01439953	     -1.06546143	      1.82656299	      0.90498030	     -0.03603915	     18.05003088	     -8.68920810	    -12.76807584	     31.49436397	      3.71519015	     -3.93594169	      0.00000000	     15.61418109	     -6.49865684	      0.67436351	     23.78199076	      0.79941817	     -2.65572081	      0.00000000	     -8.12831266	     -0.01844332	      0.46772720	     48.67652814	      6.21390634	     18.94401457	    113.51571530	     94.70167688	     59.65757839	      6.59020307	     16.99400084	     89.88775867	     79.87270514
      3.75000000	     -7.45062477	      0.00020401	     -1.18134798	      1.82416688	      0.90668698	     -0.03542055	     18.37436150	     -8.73953692	    -13.06367863	     31.33023763	      2.83050094	     -3.40125712	      0.00000000	     15.50287865	     -6.50614616	      0.86238715	     23.03316556	      0.08342409	     -2.69203481	      0.00000000	     -9.48475098	      0.25518479	      0.80922282	     45.57747138	      6.20499034	     18.97785137	    112.14691948	     94.37215420	     56.59414220	      6.20376686	     16.87745916	     89.10853427	     79.17878084
      3.76666670	     -7.69586780	      0.00343196	     -1.13592753	      1.82137215	      0.90711106	     -0.03494229	     19.05871059	     -8.90717403	    -13.44346025	     31.60873394	      2.15995074	     -2.96614968	      0.00000000	     15.74842788	     -6.44388530	      1.37417401	     22.54360927	     -0.53173588	     -3.31462843	      0.00000000	    -10.48148190	      0.77179493	      0.25680879	     42.73135751	      6.79269944	     20.05045805	    109.10273252	     91.87436534	     52.98797192	      5.27129292	     15.89758680	     89.03782680	     73.84766862
      3.78333330	     -7.80565347	      0.04040160	     -1.34301492	      1.81811223	      0.90760163	     -0.03426229	     19.66003050	     -8.97690201	    -13.33649388	     31.85357495	      1.48511835	     -2.55995613	      0.00000000	     15.77481755	     -6.50262865	      1.43259477	     21.97508252	     -1.10682719	     -3.39652261	      0.00000000	    -11.69719689	      0.95374819	      0.67220500	     39.71854898	      7.01243698	     20.22177121	    106.62035435	     88.99912110	     49.76573602	      4.88795275	     15.89755549	     88.64162995	     67.52903944
      3.80000000	     -7.86318625	      0.13356549	     -1.38077160	      1.81480086	      0.90770753	     -0.03422549	     20.16213217	     -9.17263335	    -13.39682098	     32.10722756	      0.87863962	     -2.39857574	      0.00000000	     15.88375116	     -6.48079658	      1.34951770	     21.58039594	     -1.78583454	     -3.31812946	      0.00000000	    -13.00180089	      0.85399036	      1.01418388	     36.78550219	      7.17908077	     20.02171061	    104.51266134	     88.82198341	     46.49534391	      4.89666221	     16.00614202	     88.07938296	     67.16711755
